<?xml version="1.0" encoding="UTF-8" standalone="no"?>
<!-- Created with Inkscape (http://www.inkscape.org/) -->

<svg
   xmlns:dc="http://purl.org/dc/elements/1.1/"
   xmlns:cc="http://creativecommons.org/ns#"
   xmlns:rdf="http://www.w3.org/1999/02/22-rdf-syntax-ns#"
   xmlns:svg="http://www.w3.org/2000/svg"
   xmlns="http://www.w3.org/2000/svg"
   xmlns:sodipodi="http://sodipodi.sourceforge.net/DTD/sodipodi-0.dtd"
   xmlns:inkscape="http://www.inkscape.org/namespaces/inkscape"
   width="210mm"
   height="297mm"
   viewBox="0 0 744.09448819 1052.3622047"
   id="svg2"
   version="1.1"
   inkscape:version="0.91 r13725"
   sodipodi:docname="logo.svg">
  <defs
     id="defs4">
    <filter
       inkscape:collect="always"
       style="color-interpolation-filters:sRGB"
       id="filter4439"
       x="-0.043766323"
       width="1.0875326"
       y="-0.053140473"
       height="1.1062809">
      <feGaussianBlur
         inkscape:collect="always"
         stdDeviation="1.3934933"
         id="feGaussianBlur4441" />
    </filter>
    <filter
       inkscape:collect="always"
       style="color-interpolation-filters:sRGB"
       id="filter4455"
       x="-0.0025044315"
       width="1.0050089"
       y="-0.0063994537"
       height="1.0127989">
      <feGaussianBlur
         inkscape:collect="always"
         stdDeviation="0.33427441"
         id="feGaussianBlur4457" />
    </filter>
    <filter
       inkscape:collect="always"
       style="color-interpolation-filters:sRGB"
       id="filter4439-3"
       x="-0.043766323"
       width="1.0875326"
       y="-0.053140473"
       height="1.1062809">
      <feGaussianBlur
         inkscape:collect="always"
         stdDeviation="1.3934933"
         id="feGaussianBlur4441-6" />
    </filter>
    <filter
       inkscape:collect="always"
       style="color-interpolation-filters:sRGB"
       id="filter4455-7"
       x="-0.0025044314"
       width="1.0050089"
       y="-0.0063994536"
       height="1.0127989">
      <feGaussianBlur
         inkscape:collect="always"
         stdDeviation="0.33427441"
         id="feGaussianBlur4457-5" />
    </filter>
  </defs>
  <sodipodi:namedview
     id="base"
     pagecolor="#ffffff"
     bordercolor="#666666"
     borderopacity="1.0"
     inkscape:pageopacity="0.0"
     inkscape:pageshadow="2"
     inkscape:zoom="0.7"
     inkscape:cx="292.74789"
     inkscape:cy="198.02951"
     inkscape:document-units="px"
     inkscape:current-layer="layer1"
     showgrid="false"
     inkscape:window-width="1535"
     inkscape:window-height="876"
     inkscape:window-x="65"
     inkscape:window-y="24"
     inkscape:window-maximized="1" />
  <metadata
     id="metadata7">
    <rdf:RDF>
      <cc:Work
         rdf:about="">
        <dc:format>image/svg+xml</dc:format>
        <dc:type
           rdf:resource="http://purl.org/dc/dcmitype/StillImage" />
        <dc:title />
      </cc:Work>
    </rdf:RDF>
  </metadata>
  <g
     inkscape:label="Layer 1"
     inkscape:groupmode="layer"
     id="layer1">
    <rect
       style="fill:#000000;fill-opacity:0.08805033;stroke:#000000;stroke-width:3;stroke-linecap:round;stroke-miterlimit:4;stroke-dasharray:none;stroke-opacity:1"
       id="rect3402"
       width="1095.0054"
       height="210.11172"
       x="-312.69913"
       y="451.47525" />
    <text
       xml:space="preserve"
       style="font-style:normal;font-weight:normal;font-size:54.56938553px;line-height:125%;font-family:sans-serif;letter-spacing:0px;word-spacing:0px;fill:#000000;fill-opacity:1;stroke:none;stroke-width:3.4000001;stroke-linecap:butt;stroke-linejoin:miter;stroke-miterlimit:4;stroke-dasharray:none;stroke-opacity:1"
       x="82.765106"
       y="351.67389"
       id="text3336"
       sodipodi:linespacing="125%"><tspan
         sodipodi:role="line"
         id="tspan3338"
         x="82.765106"
         y="351.67389"
         style="font-style:normal;font-variant:normal;font-weight:bold;font-stretch:normal;font-size:122.78111267px;line-height:125%;font-family:'Amatic SC';-inkscape-font-specification:'Amatic SC, Bold';text-align:start;writing-mode:lr-tb;text-anchor:start;stroke-width:3.4000001;stroke-miterlimit:4;stroke-dasharray:none"><tspan
           style="stroke:#000000;stroke-width:4.63839769;stroke-opacity:1"
           id="tspan4142">Dive with </tspan><tspan
           style="fill:#4f5665;fill-opacity:1;stroke:#4f5665;stroke-width:4.63839769;stroke-miterlimit:4;stroke-dasharray:none;stroke-opacity:1"
           id="tspan3340">Passion</tspan></tspan></text>
    <g
       id="g4300"
       transform="matrix(1.9449958,0,0,1.8095107,46.388015,555.95405)" />
    <path
       id="path4324"
       style="fill:#1e1616;fill-opacity:1;fill-rule:evenodd;stroke:none;stroke-width:1px;stroke-linecap:butt;stroke-linejoin:round;stroke-opacity:1;filter:url(#filter4455)"
       d="m -167.45249,352.85446 c -2.26254,1.469 -3.85669,3.10539 -3.16062,5.31544 4.58473,3.20432 6.47931,2.4744 7.90155,2.26189 1.75438,-0.99789 2.79381,-2.06228 3.40374,-3.16665 -3.66573,-3.73086 -5.43873,-2.96173 -8.14467,-4.41068 z m 48.62489,-5.31544 c -13.72006,6.57244 -20.59239,8.60059 -36.10398,10.06541 4.33355,3.85724 13.25417,5.15088 25.04182,1.47022 11.83502,-4.30461 9.0077,-7.78248 11.06216,-11.53563 z m 88.861997,-2.37498 c -14.448771,6.31496 -36.318418,13.74817 -62.847675,7.69042 -6.241686,3.73302 12.144515,12.09479 21.15183,12.44039 10.82849,0.41546 44.134189,-19.97248 41.695845,-20.13081 z m -158.517157,-5.74308 c -11.11312,3.60849 -23.72778,9.62946 -23.35901,12.4828 0.5837,3.25319 3.01844,2.91916 17.80134,-4.72523 8.0453,9.24257 20.15275,7.04367 20.15275,7.04367 -12.63637,-9.53287 -14.67249,-11.87512 -14.59508,-14.80124 z m 111.107887,-81.792 c 0,0 -1.545607,5.78416 -3.646867,7.69042 -4.017232,3.64443 -14.026649,3.77782 -32.82181,19.67843 l -0.19337,-1.97894 c 1.3514,-4.85374 31.083709,-22.9548 36.662047,-25.38991 z m 48.138644,-17.4483 c -3.087078,-0.17914 -6.162836,-0.25975 -9.22354,-0.24032 l 0,-5e-5 c -45.910535,0.29147 -92.149231,20.78957 -125.600261,91.23667 l -1.33582,2.73912 c -1.5593,-0.49134 -3.45039,-2.63819 -7.6295,-6.81181 -4.14216,-4.70348 15.29033,-27.24821 6.24906,-24.88077 -30.96581,8.10831 -55.84328,31.9457 -80.92634,32.95642 -4.36593,0.38903 -9.14887,2.92701 -6.00965,7.20623 3.96488,3.52799 14.5371,1.83418 22.33711,-0.0954 12.46179,-3.80334 23.28647,-12.00695 47.23446,-18.74186 6.01568,-1.6918 -4.78125,8.461 -1.04086,11.30944 13.08659,12.57469 18.19053,9.26334 26.80447,8.77895 31.46114,-6.3951 39.90944,-11.48714 53.32022,-15.62471 0.96439,4.13656 2.46457,11.00405 11.567405,14.59978 10.241823,1.82817 13.434047,1.81114 34.732625,-0.64675 20.091417,-4.65312 38.108711,-13.21249 49.6657591,-18.74186 2.0553354,-0.98336 4.3220335,20.5081 20.1451389,23.59079 22.46793,-3.17906 67.402331,-21.62163 51.05614,-21.3289 -42.947511,0.76913 -49.432905,10.9152 -57.3089908,-0.64319 -5.27420629,-11.48728 6.8208668,-26.00218 1.3903608,-23.26564 -102.108913,61.83417 -57.737628,0.0584 -35.427787,-61.39614 z"
       inkscape:connector-curvature="0"
       sodipodi:nodetypes="cccccccccccscccccccscccccccccscccscccccscsccc" />
    <path
       style="fill:#222222;fill-opacity:0.57471263;fill-rule:evenodd;stroke:none;stroke-width:1px;stroke-linecap:butt;stroke-linejoin:miter;stroke-opacity:1;filter:url(#filter4439)"
       d="m -131.57237,319.49653 c -3.28123,-4.80896 21.16086,-27.34255 35.102802,-37.1231 12.09834,-8.48722 44.757182,-34.44152 40.65864,-17.67768 -2.718016,11.11722 -5.678067,34.63497 -23.991123,46.46702 -18.313057,11.83205 -48.489089,13.14272 -51.770319,8.33376 z"
       id="path4409"
       inkscape:connector-curvature="0"
       sodipodi:nodetypes="zaszz" />
    <g
       id="g4204"
       style="fill:#ffffff;fill-opacity:1"
       inkscape:export-xdpi="72.301605"
       inkscape:export-ydpi="72.301605">
      <text
         sodipodi:linespacing="125%"
         id="text3336-3"
         y="592.29987"
         x="89.902565"
         style="font-style:normal;font-weight:normal;font-size:54.56938553px;line-height:125%;font-family:sans-serif;letter-spacing:0px;word-spacing:0px;fill:#ffffff;fill-opacity:1;stroke:#ffffff;stroke-width:3.4000001;stroke-linecap:butt;stroke-linejoin:miter;stroke-miterlimit:4;stroke-dasharray:none;stroke-opacity:1;"
         xml:space="preserve"
         inkscape:export-xdpi="72.301605"
         inkscape:export-ydpi="72.301605"><tspan
           style="font-style:normal;font-variant:normal;font-weight:bold;font-stretch:normal;font-size:122.78111267px;line-height:125%;font-family:'Amatic SC';-inkscape-font-specification:'Amatic SC, Bold';text-align:start;writing-mode:lr-tb;text-anchor:start;stroke-width:3.4000001;stroke-miterlimit:4;stroke-dasharray:none;fill:#ffffff;fill-opacity:1;stroke:#ffffff;stroke-opacity:1;"
           y="592.29987"
           x="89.902565"
           id="tspan3338-5"
           sodipodi:role="line"><tspan
             id="tspan4142-6"
             style="stroke:#ffffff;stroke-width:4.63839769;stroke-opacity:1;fill:#ffffff;fill-opacity:1;">Dive with </tspan><tspan
             id="tspan3340-2"
             style="fill:#ffffff;fill-opacity:1;stroke:#ffffff;stroke-width:4.63839769;stroke-miterlimit:4;stroke-dasharray:none;stroke-opacity:1;">Passion</tspan></tspan></text>
      <path
         sodipodi:nodetypes="cccccccccccscccccccscccccccccscccscccccscsccc"
         inkscape:connector-curvature="0"
         d="m -160.31505,593.48047 c -2.26254,1.469 -3.85669,3.10539 -3.16062,5.31544 4.58473,3.20432 6.47931,2.4744 7.90155,2.26189 1.75438,-0.99789 2.79381,-2.06228 3.40374,-3.16665 -3.66573,-3.73086 -5.43873,-2.96173 -8.14467,-4.41068 z m 48.62488,-5.31544 c -13.72006,6.57244 -20.59239,8.60059 -36.10398,10.06541 4.33355,3.85724 13.25417,5.15088 25.04182,1.47022 11.83502,-4.30461 9.0077,-7.78248 11.06216,-11.53563 z m 88.861998,-2.37498 c -14.44877,6.31496 -36.31842,13.74817 -62.84767,7.69042 -6.24169,3.73302 12.14451,12.09479 21.15183,12.44039 10.82849,0.41546 44.13418,-19.97248 41.69584,-20.13081 z m -158.517148,-5.74308 c -11.11312,3.60849 -23.72778,9.62946 -23.35901,12.4828 0.5837,3.25319 3.01844,2.91916 17.80134,-4.72523 8.0453,9.24257 20.15275,7.04367 20.15275,7.04367 -12.63637,-9.53287 -14.67249,-11.87512 -14.59508,-14.80124 z m 111.107878,-81.792 c 0,0 -1.54561,5.78416 -3.64687,7.69042 -4.01723,3.64443 -14.02665,3.77782 -32.821808,19.67843 l -0.19337,-1.97894 c 1.3514,-4.85374 31.083708,-22.9548 36.662048,-25.38991 z m 48.13864,-17.4483 c -3.08707,-0.17914 -6.16283,-0.25975 -9.22354,-0.24032 l 0,-5e-5 c -45.91053,0.29147 -92.149228,20.78957 -125.600248,91.23667 l -1.33582,2.73912 c -1.5593,-0.49134 -3.45039,-2.63819 -7.6295,-6.81181 -4.14216,-4.70348 15.29033,-27.24821 6.24906,-24.88077 -30.96581,8.10831 -55.84328,31.9457 -80.92634,32.95642 -4.36593,0.38903 -9.14887,2.92701 -6.00965,7.20623 3.96488,3.52799 14.5371,1.83418 22.33711,-0.0954 12.46179,-3.80334 23.28647,-12.00695 47.23446,-18.74186 6.01568,-1.6918 -4.78125,8.461 -1.04086,11.30944 13.08659,12.57469 18.19053,9.26334 26.80447,8.77895 31.46113,-6.3951 39.90943,-11.48714 53.320208,-15.62471 0.96439,4.13656 2.46457,11.00405 11.56741,14.59978 10.24182,1.82817 13.43405,1.81114 34.73262,-0.64675 20.09142,-4.65312 38.10871,-13.21249 49.6657598,-18.74186 2.05534002,-0.98336 4.32204,20.5081 20.1451402,23.59079 22.46793,-3.17906 67.40233,-21.62163 51.05614,-21.3289 -42.94751,0.76913 -49.4329,10.9152 -57.30899,-0.64319 -5.2742102,-11.48728 6.82087,-26.00218 1.39036,-23.26564 -102.10891,61.83417 -57.73763,0.0584 -35.42779,-61.39614 z"
         style="fill:#ffffff;fill-opacity:1;fill-rule:evenodd;stroke:none;stroke-width:1px;stroke-linecap:butt;stroke-linejoin:round;stroke-opacity:1;filter:url(#filter4455-7)"
         id="path4324-9"
         inkscape:export-xdpi="72.301605"
         inkscape:export-ydpi="72.301605" />
      <path
         sodipodi:nodetypes="zaszz"
         inkscape:connector-curvature="0"
         id="path4409-1"
         d="m -124.43494,560.12254 c -3.28123,-4.80896 21.16086,-27.34255 35.102808,-37.1231 12.09834,-8.48722 44.75718,-34.44152 40.65864,-17.67768 -2.71802,11.11722 -5.67807,34.63497 -23.99113,46.46702 -18.31305,11.83205 -48.489088,13.14272 -51.770318,8.33376 z"
         style="fill:#e7e7e7;fill-opacity:1;fill-rule:evenodd;stroke:none;stroke-width:1px;stroke-linecap:butt;stroke-linejoin:miter;stroke-opacity:1;filter:url(#filter4439-3)"
         inkscape:export-xdpi="72.301605"
         inkscape:export-ydpi="72.301605" />
    </g>
    <rect
       y="726.62811"
       x="-330.40341"
       height="524.09174"
       width="1093.2711"
       id="rect4212"
       style="fill:#000000;fill-opacity:0.08805033;stroke:#000000;stroke-width:4.73429775;stroke-linecap:round;stroke-miterlimit:4;stroke-dasharray:none;stroke-opacity:1" />
    <g
       inkscape:export-ydpi="72.301605"
       inkscape:export-xdpi="72.301605"
       style="fill:#ffffff;fill-opacity:1"
       id="g4214"
       transform="translate(-32.857143,501.42858)"
       inkscape:export-filename="/home/roboto/devel/divewithpassion/app/images/logo-white-tall.png">
      <text
         inkscape:export-ydpi="72.301605"
         inkscape:export-xdpi="72.301605"
         xml:space="preserve"
         style="font-style:normal;font-weight:normal;font-size:54.56938553px;line-height:125%;font-family:sans-serif;letter-spacing:0px;word-spacing:0px;fill:#ffffff;fill-opacity:1;stroke:#ffffff;stroke-width:3.4000001;stroke-linecap:butt;stroke-linejoin:miter;stroke-miterlimit:4;stroke-dasharray:none;stroke-opacity:1"
         x="-24.38315"
         y="603.72845"
         id="text4216"
         sodipodi:linespacing="125%"><tspan
           sodipodi:role="line"
           id="tspan4218"
           x="-24.38315"
           y="603.72845"
           style="font-style:normal;font-variant:normal;font-weight:bold;font-stretch:normal;font-size:122.78111267px;line-height:125%;font-family:'Amatic SC';-inkscape-font-specification:'Amatic SC, Bold';text-align:start;writing-mode:lr-tb;text-anchor:start;fill:#ffffff;fill-opacity:1;stroke:#ffffff;stroke-width:3.4000001;stroke-miterlimit:4;stroke-dasharray:none;stroke-opacity:1"><tspan
             style="fill:#ffffff;fill-opacity:1;stroke:#ffffff;stroke-width:4.63839769;stroke-opacity:1"
             id="tspan4220">Dive with </tspan><tspan
             style="fill:#ffffff;fill-opacity:1;stroke:#ffffff;stroke-width:4.63839769;stroke-miterlimit:4;stroke-dasharray:none;stroke-opacity:1"
             id="tspan4222">Passion</tspan></tspan></text>
      <g
         id="g4228"
         transform="translate(368.36876,-115.71429)">
        <path
           sodipodi:nodetypes="cccccccccccscccccccscccccccccscccscccccscsccc"
           inkscape:connector-curvature="0"
           d="m -160.31505,593.48047 c -2.26254,1.469 -3.85669,3.10539 -3.16062,5.31544 4.58473,3.20432 6.47931,2.4744 7.90155,2.26189 1.75438,-0.99789 2.79381,-2.06228 3.40374,-3.16665 -3.66573,-3.73086 -5.43873,-2.96173 -8.14467,-4.41068 z m 48.62488,-5.31544 c -13.72006,6.57244 -20.59239,8.60059 -36.10398,10.06541 4.33355,3.85724 13.25417,5.15088 25.04182,1.47022 11.83502,-4.30461 9.0077,-7.78248 11.06216,-11.53563 z m 88.861998,-2.37498 c -14.44877,6.31496 -36.31842,13.74817 -62.84767,7.69042 -6.24169,3.73302 12.14451,12.09479 21.15183,12.44039 10.82849,0.41546 44.13418,-19.97248 41.69584,-20.13081 z m -158.517148,-5.74308 c -11.11312,3.60849 -23.72778,9.62946 -23.35901,12.4828 0.5837,3.25319 3.01844,2.91916 17.80134,-4.72523 8.0453,9.24257 20.15275,7.04367 20.15275,7.04367 -12.63637,-9.53287 -14.67249,-11.87512 -14.59508,-14.80124 z m 111.107878,-81.792 c 0,0 -1.54561,5.78416 -3.64687,7.69042 -4.01723,3.64443 -14.02665,3.77782 -32.821808,19.67843 l -0.19337,-1.97894 c 1.3514,-4.85374 31.083708,-22.9548 36.662048,-25.38991 z m 48.13864,-17.4483 c -3.08707,-0.17914 -6.16283,-0.25975 -9.22354,-0.24032 l 0,-5e-5 c -45.91053,0.29147 -92.149228,20.78957 -125.600248,91.23667 l -1.33582,2.73912 c -1.5593,-0.49134 -3.45039,-2.63819 -7.6295,-6.81181 -4.14216,-4.70348 15.29033,-27.24821 6.24906,-24.88077 -30.96581,8.10831 -55.84328,31.9457 -80.92634,32.95642 -4.36593,0.38903 -9.14887,2.92701 -6.00965,7.20623 3.96488,3.52799 14.5371,1.83418 22.33711,-0.0954 12.46179,-3.80334 23.28647,-12.00695 47.23446,-18.74186 6.01568,-1.6918 -4.78125,8.461 -1.04086,11.30944 13.08659,12.57469 18.19053,9.26334 26.80447,8.77895 31.46113,-6.3951 39.90943,-11.48714 53.320208,-15.62471 0.96439,4.13656 2.46457,11.00405 11.56741,14.59978 10.24182,1.82817 13.43405,1.81114 34.73262,-0.64675 20.09142,-4.65312 38.10871,-13.21249 49.6657598,-18.74186 2.05534002,-0.98336 4.32204,20.5081 20.1451402,23.59079 22.46793,-3.17906 67.40233,-21.62163 51.05614,-21.3289 -42.94751,0.76913 -49.4329,10.9152 -57.30899,-0.64319 -5.2742102,-11.48728 6.82087,-26.00218 1.39036,-23.26564 -102.10891,61.83417 -57.73763,0.0584 -35.42779,-61.39614 z"
           style="fill:#ffffff;fill-opacity:1;fill-rule:evenodd;stroke:none;stroke-width:1px;stroke-linecap:butt;stroke-linejoin:round;stroke-opacity:1;filter:url(#filter4455-7)"
           id="path4224"
           inkscape:export-xdpi="72.301605"
           inkscape:export-ydpi="72.301605" />
        <path
           sodipodi:nodetypes="zaszz"
           inkscape:connector-curvature="0"
           id="path4226"
           d="m -124.43494,560.12254 c -3.28123,-4.80896 21.16086,-27.34255 35.102808,-37.1231 12.09834,-8.48722 44.75718,-34.44152 40.65864,-17.67768 -2.71802,11.11722 -5.67807,34.63497 -23.99113,46.46702 -18.31305,11.83205 -48.489088,13.14272 -51.770318,8.33376 z"
           style="fill:#e7e7e7;fill-opacity:1;fill-rule:evenodd;stroke:none;stroke-width:1px;stroke-linecap:butt;stroke-linejoin:miter;stroke-opacity:1;filter:url(#filter4439-3)"
           inkscape:export-xdpi="72.301605"
           inkscape:export-ydpi="72.301605" />
      </g>
    </g>
  </g>
</svg>
